<?xml version="1.0" standalone="no"?><!-- Generator: Gravit.io --><svg xmlns="http://www.w3.org/2000/svg" xmlns:xlink="http://www.w3.org/1999/xlink" style="isolation:isolate" viewBox="0 0 30.519 31.5" width="30.519" height="31.5"><defs><clipPath id="_clipPath_hEBry3Y5YbLb6NHk3xJZZPmmdiEpEU1F"><rect width="30.5" height="31.5"/></clipPath></defs><g clip-path="url(#_clipPath_hEBry3Y5YbLb6NHk3xJZZPmmdiEpEU1F)"><rect width="30.5" height="31.5" style="fill:rgb(15,15,15)"/><g id="CSS"><path d=" M 4.6 0 L 4.4 1.1 L 3.7 5 L 3.4 6.6 L 22.7 6.6 L 22.3 9.1 L 3 9.1 L 2.8 10.2 L 2.1 14.2 L 1.8 15.7 L 21.1 15.7 L 20.1 21.3 L 13 24.6 L 7.4 21.5 L 7.7 19.8 L 8 18.2 L 1.3 18.2 L 1.1 19.4 L 0.2 24.6 L 0 25.6 L 0.9 26 L 11.6 31.2 L 12.1 31.5 L 12.7 31.3 L 25.2 26 L 25.9 25.8 L 26 25 L 30.2 1.6 L 30.5 0 L 4.6 0 Z  M 6.9 2.7 L 27.2 2.7 L 23.5 23.8 L 12.2 28.5 L 3.1 24 L 3.6 21 L 4.7 21 L 4.3 22.9 L 5.2 23.4 L 12.2 27.3 L 12.8 27.6 L 13.5 27.3 L 21.9 23.4 L 22.5 23.1 L 22.6 22.4 L 24 14.6 L 24.3 13 L 5.1 13 L 5.2 11.8 L 24.6 11.8 L 24.7 10.7 L 25.7 5.5 L 26 3.9 L 6.7 3.9 L 6.9 2.7 Z " fill="rgb(2,119,189)"/></g></g></svg>