<svg xmlns="http://www.w3.org/2000/svg" xmlns:xlink="http://www.w3.org/1999/xlink" style="isolation:isolate" viewBox="0 0 31.452 31.452" width="31.452" height="31.452"><defs><clipPath id="_clipPath_Wd6dFiRvXOPjTss0IIlWYv6A7P1ltx2i"><rect width="31.5" height="31.5"/></clipPath></defs><g clip-path="url(#_clipPath_Wd6dFiRvXOPjTss0IIlWYv6A7P1ltx2i)"><rect width="31.5" height="31.5" style="fill:rgb(15,15,15)"/><g id="Js"><path d=" M 29.5 0 L 2 0 C 0.9 0 0 0.9 0 2 L 0 29.5 C 0 30.6 0.9 31.5 2 31.5 L 29.5 31.5 C 30.6 31.5 31.5 30.6 31.5 29.5 L 31.5 2 C 31.5 0.9 30.6 0 29.5 0 L 29.5 0 Z  M 17.2 24.1 C 17.2 27.1 15.5 28.5 12.9 28.5 C 10.6 28.5 8.9 26.9 8.2 25.5 L 10.6 24 C 11 24.8 11.7 25.5 12.7 25.5 C 13.7 25.5 14.2 25.1 14.2 23.6 L 14.2 14.2 L 17.2 14.2 L 17.2 24.1 Z  M 23.7 28.5 C 21.1 28.5 19.6 27.1 18.7 25.5 L 21 24 C 21.6 25 22.2 25.9 23.7 25.9 C 24.8 25.9 25.5 25.3 25.5 24.5 C 25.5 23.5 24.8 23.2 23.5 22.6 L 22.8 22.3 C 20.7 21.4 19.4 20.3 19.4 18 C 19.4 15.9 21 14.2 23.6 14.2 C 25.4 14.2 26.7 14.9 27.6 16.5 L 25.4 17.9 C 24.9 17.1 24.4 16.7 23.6 16.7 C 22.7 16.7 22.2 17.3 22.2 17.9 C 22.2 18.8 22.7 19.1 23.9 19.7 L 24.7 20 C 27.1 21 28.5 22.1 28.5 24.5 C 28.5 27 26.4 28.5 23.7 28.5 Z " fill="rgb(193,181,10)"/></g></g></svg>
