<?xml version="1.0" encoding="UTF-8" standalone="no"?>
<svg width="383" isolation="isolate" xmlns="http://www.w3.org/2000/svg" viewBox="1086 157 383 312" height="312">
 <path d="m1416 469h-114-1l-2-2h-1-43-1l-2 1c0 1 0 1-1 1h-114c-6 0-12-6-12-13v-188c0-6 6-12 12-12h279c7 0 12 6 12 12v188c0 7-5 13-12 13z" fill="#151515"/>
 <path vector-effect="non-scaling-stroke" d="m1323 459h-92c-2 0-4-2-4-3v-65c0-2 2-4 4-4h92c1 0 3 2 3 4v65c0 1-2 3-3 3z" stroke="#7f7e7f" stroke-miterlimit="10" stroke-width="0" fill="#111"/>
 <path vector-effect="non-scaling-stroke" d="m1406 378h-259c-1 0-3-1-3-3v-101c0-2 2-3 3-3h259c2 0 3 1 3 3v101c0 2-1 3-3 3z" stroke="#c4c4c4" stroke-miterlimit="10" stroke-width="0" fill="#0d0d0d"/>
 <path d="m1461 176h-369l-6-14c-1-2 1-5 3-5h376c3 0 5 4 3 7l-7 12z" fill="#7b7b7b"/>
 <path d="m1424 255h-293c-2 0-4-1-4-3l-40-89s-1-1 0-2c0-2 2-2 4-2h373c3 0 5 3 4 6l-40 87c-1 2-2 3-4 3z" fill="#111"/>
 <path d="m1415 247h-276l-34-80h345l-35 80z" fill="#060606"/>
 <path d="m1105 167h345l-34 80h-34l-108-80h-169z" fill="#0b0b0b"/>
 <path d="m1276 164s0-1 2-1c1 0 2 1 2 1 0 1-1 1-2 1-2 0-2 0-2-1z" fill="#8c8c8c"/>
 <rect height="10" width="240" y="254" x="1156" fill="#131516"/>
 <rect height="2" width="240" y="259" x="1156" fill="#27292b"/>
 <path d="m1162 282h-12c-1 0-2-1-2-2v-3c0-2 1-3 2-3h12c1 0 3 1 3 3v3c0 1-1 2-3 2zm19 0h-12c-1 0-2-1-2-2v-3c0-2 1-3 2-3h12c1 0 2 1 2 3v3c0 1-1 2-2 2zm18 0h-11c-2 0-3-1-3-2v-3c0-2 1-3 3-3h11c2 0 3 1 3 3v3c0 1-1 2-3 2zm19 0h-12c-1 0-2-1-2-2v-3c0-2 1-3 2-3h12c1 0 2 1 2 3v3c0 1-1 2-2 2zm18 0h-12c-1 0-2-1-2-2v-3c0-2 1-3 2-3h12c1 0 2 1 2 3v3c0 1-1 2-2 2zm19 0h-12c-1 0-2-1-2-2v-3c0-2 1-3 2-3h12c1 0 2 1 2 3v3c0 1-1 2-2 2zm18 0h-11c-2 0-3-1-3-2v-3c0-2 1-3 3-3h11c2 0 3 1 3 3v3c0 1-1 2-3 2zm19 0h-12c-1 0-2-1-2-2v-3c0-2 1-3 2-3h12c1 0 2 1 2 3v3c0 1-1 2-2 2zm18 0h-12c-1 0-2-1-2-2v-3c0-2 1-3 2-3h12c1 0 2 1 2 3v3c0 1-1 2-2 2zm19 0h-12c-1 0-2-1-2-2v-3c0-2 1-3 2-3h12c1 0 2 1 2 3v3c0 1-1 2-2 2zm19 0h-12c-1 0-3-1-3-2v-3c0-2 2-3 3-3h12c1 0 2 1 2 3v3c0 1-1 2-2 2zm18 0h-12c-1 0-2-1-2-2v-3c0-2 1-3 2-3h12c1 0 2 1 2 3v3c0 1-1 2-2 2zm18 0h-12c-1 0-2-1-2-2v-3c0-2 1-3 2-3h12c1 0 2 1 2 3v3c0 1-1 2-2 2zm19 0h-12c-1 0-2-1-2-2v-3c0-2 1-3 2-3h12c1 0 2 1 2 3v3c0 1-1 2-2 2zm-242 18h-11s-1 0-1-1c-1 0-1-1-1-1v-10c0-1 0-1 1-2h1 11 2v2 10c0 1-1 2-2 2zm76 54h-11c-1 0-1-1-2-1v-2-9-2c1 0 1-1 2-1h11l1 1c1 0 1 1 1 2v9c0 2-1 3-2 3zm-18 0h-11c-1 0-1-1-2-1v-2-9-2c1 0 1-1 2-1h11l1 1c1 0 1 1 1 2v9c0 1 0 1-1 2l-1 1zm-18 0h-11c-1 0-1-1-1-1-1-1-1-1-1-2v-9c0-1 0-2 1-2 0 0 0-1 1-1h11c1 0 1 1 2 1v2 9c0 2-1 3-2 3zm169-18h-11s-1 0-1-1c-1 0-1-1-1-1v-10s0-1 1-1c0-1 1-1 1-1h11c1 0 1 0 2 1v1 10c0 1-1 2-2 2zm-18 0h-11s-1 0-1-1c-1 0-1-1-1-1v-10s0-1 1-1c0-1 1-1 1-1h11c1 0 1 0 2 1v1 10c0 1-1 2-2 2zm-18 0h-10c-1 0-2 0-2-1l-1-1v-10l1-1c0-1 1-1 2-1h10c1 0 2 0 2 1l1 1v10c0 1-1 2-3 2zm-18 0h-11s-1 0-1-1l-1-1v-10l1-1c0-1 1-1 1-1h11c1 0 2 0 2 1l1 1v10l-1 1c0 1-1 1-2 1zm-17 0h-11c-1 0-1 0-2-1v-1-10-1c1-1 1-1 2-1h11c1 0 1 0 1 1 1 0 1 1 1 1v10c0 1-1 2-2 2zm-19 0h-11s-1 0-1-1l-1-1v-10l1-1c0-1 1-1 1-1h11c1 0 2 0 2 1l1 1v10c0 1-1 2-3 2zm-34 0h-11c-1 0-1 0-2-1v-1-10-1c1-1 1-1 2-1h11s1 0 1 1c1 0 1 1 1 1v10c0 1-1 2-2 2zm-18 0h-11c-1 0-1 0-2-1v-1-10-1c1-1 1-1 2-1h11s1 0 1 1c1 0 1 1 1 1v10c0 1-1 2-2 2zm-18 0h-11c-1 0-1 0-1-1-1 0-1-1-1-1v-10s0-1 1-1c0-1 0-1 1-1h11c1 0 1 0 2 1v1 10 1c-1 1-1 1-2 1zm-18 0h-11c-1 0-1 0-1-1-1 0-1-1-1-1v-10s0-1 1-1c0-1 0-1 1-1h11c1 0 1 0 2 1v1 10 1c-1 1-1 1-2 1zm210-18h-11c-1 0-1-1-2-1v-2-9-2c1 0 1-1 2-1h11l1 1c1 0 1 1 1 2v9c0 2-1 3-2 3zm-18 0h-11c-1 0-1-1-1-1-1 0-1-1-1-2v-9c0-1 0-2 1-2 0 0 0-1 1-1h11c1 0 1 1 2 1v2 9c0 2-1 3-2 3zm-18 0h-11l-1-1c-1 0-1-1-1-2v-9c0-1 0-2 1-2l1-1h11c1 0 1 1 2 1v2 9 2c-1 0-1 1-2 1zm-18 0h-10c-1 0-2-1-2-1s-1-1-1-2v-9c0-1 1-2 1-2s1-1 2-1h10c1 0 2 1 2 1s1 1 1 2v9c0 2-1 3-3 3zm-17 0h-11c-1 0-1-1-2-1v-2-9-2c1 0 1-1 2-1h11l1 1c1 0 1 1 1 2v9c0 2-1 3-2 3zm-18 0h-11c-1 0-1-1-2-1v-2-9-2c1 0 1-1 2-1h11l1 1c1 0 1 1 1 2v9c0 1 0 2-1 2l-1 1zm-19 0h-10c-1 0-2-1-2-1s-1-1-1-2v-9c0-1 1-2 1-2s1-1 2-1h10c1 0 2 1 2 1s1 1 1 2v9c0 1-1 2-1 2s-1 1-2 1zm-17 0h-11c-1 0-1-1-1-1-1 0-1-1-1-2v-9c0-1 0-2 1-2 0 0 0-1 1-1h11c1 0 1 1 2 1v2 9c0 2-1 3-2 3zm-18 0h-11l-1-1c-1 0-1-1-1-2v-9c0-1 0-2 1-2l1-1h11c1 0 1 1 2 1v2 9c0 2-1 3-2 3zm-18 0h-11l-1-1c-1 0-1-1-1-2v-9c0-1 0-2 1-2l1-1h11c1 0 1 1 2 1v2 9 2c-1 0-1 1-2 1zm-17 0h-11c-1 0-1-1-2-1v-2-9-2c1 0 1-1 2-1h11l1 1c1 0 1 1 1 2v9c0 2-1 3-2 3zm-18 0h-11l-1-1c-1 0-1-1-1-2v-9c0-1 0-2 1-2l1-1h11c1 0 1 1 2 1v2 9c0 2-1 3-2 3zm-18 0h-11l-1-1c-1 0-1-1-1-2v-9c0-1 0-2 1-2l1-1h11c1 0 1 1 2 1v2 9 2c-1 0-1 1-2 1zm187-18h-11c-1 0-1 0-2-1v-1-10-2h2 11 1c1 1 1 1 1 2v10s0 1-1 1c0 1 0 1-1 1zm-18 0h-11s-1 0-1-1c-1 0-1-1-1-1v-10c0-1 0-1 1-2h1 11 2v2 10c0 1-1 2-2 2zm-17 0h-11c-1 0-1 0-2-1v-1-10-2h2 11 1c1 1 1 1 1 2v10c0 1-1 2-2 2zm-18 0h-11c-1 0-1 0-2-1v-1-10-2h2 11 1c1 1 1 1 1 2v10s0 1-1 1c0 1-1 1-1 1zm-18 0h-11s-1 0-1-1c-1 0-1-1-1-1v-10c0-1 0-1 1-2h1 11 2v2 10c0 1-1 2-2 2zm-18 0h-11c-1 0-1 0-2-1v-1-10-2h2 11 1c1 1 1 1 1 2v10c0 1-1 2-2 2zm-18 0h-11c-1 0-1 0-1-1-1 0-1-1-1-1v-10c0-1 0-1 1-2h1 11 2v2 10c0 1-1 2-2 2zm-18 0h-11s-1 0-1-1c-1 0-1-1-1-1v-10c0-1 0-1 1-2h1 11 2v2 10c0 1-1 2-2 2zm-18 0h-10c-1 0-2 0-2-1l-1-1v-10c0-1 1-1 1-2h2 10 2c0 1 1 1 1 2v10c0 1-1 2-3 2zm-17 0h-11c-1 0-1 0-2-1v-1-10-2h2 11 1c1 1 1 1 1 2v10c0 1-1 2-2 2zm-18 0h-11s-1 0-1-1c-1 0-1-1-1-1v-10c0-1 0-1 1-2h1 11 2v2 10c0 1-1 2-2 2zm-18 0h-11s-1 0-1-1c-1 0-1-1-1-1v-10c0-1 0-1 1-2h1 11 2v2 10 1c-1 1-1 1-2 1zm84 36h-10c-1 0-2 0-2-1l-1-1v-10l1-1c0-1 1-1 2-1h10c1 0 2 0 2 1l1 1v10l-1 1c0 1-1 1-2 1zm98 18h-10c-1 0-2-1-2-1 0-1-1-1-1-2v-9c0-1 1-2 1-2s1-1 2-1h10c1 0 2 1 2 1s1 1 1 2v9c0 2-1 3-3 3zm-18 0h-10c-1 0-2-1-2-1 0-1-1-1-1-2v-9c0-1 1-2 1-2s1-1 2-1h10c1 0 2 1 2 1s1 1 1 2v9c0 2-1 3-3 3zm-18 0h-10c-1 0-2-1-2-1 0-1-1-1-1-2v-9c0-1 1-2 1-2s1-1 2-1h10c1 0 2 1 2 1s1 1 1 2v9c0 1-1 1-1 2 0 0-1 1-2 1zm-17 0h-11c-1 0-1-1-2-1v-2-9-2c1 0 1-1 2-1h11l1 1c1 0 1 1 1 2v9c0 2-1 3-2 3zm-18 0h-11c-1 0-1-1-2-1v-2-9-2c1 0 1-1 2-1h11c1 0 1 1 1 1 1 0 1 1 1 2v9c0 2-1 3-2 3zm-17 0h-11c-1 0-1-1-2-1v-2-9-2c1 0 1-1 2-1h11l1 1c1 0 1 1 1 2v9c0 2-1 3-2 3zm-19 0h-10c-1 0-2-1-2-1 0-1-1-1-1-2v-9c0-1 1-2 1-2s1-1 2-1h10c1 0 2 1 2 1s1 1 1 2v9c0 2-1 3-3 3zm55 20h-83-1c-1-1-1-1-1-2v-12c0-1 0-1 1-1 0-1 1-1 1-1h83s1 0 1 1c1 0 1 0 1 1v12c0 1 0 1-1 2h-1zm-138-56h-21c-1 0-1-1-1-2v-11c0-1 0-2 1-2h21c1 0 2 1 2 2v11c0 1-1 2-2 2zm4 18h-24c-1 0-2 0-2-1v-12c0-1 1-1 2-1h24c1 0 2 0 2 1v12c0 1-1 1-2 1zm9 17h-34c-1 0-1 0-1-1v-11c0-1 0-2 1-2h34c1 0 2 1 2 2v11c0 1-1 1-2 1zm-22 21h-12c-1 0-1 0-1-1v-13c0-1 0-2 1-2h12c1 0 2 1 2 2v13c0 1-1 1-2 1zm36 0h-12c-1 0-2 0-2-1v-13c0-1 1-2 2-2h12c1 0 2 1 2 2v13c0 1-1 1-2 1zm-18 0h-12c-1 0-2 0-2-1v-13c0-1 1-2 2-2h12c1 0 2 1 2 2v13c0 1-1 1-2 1zm40 0h-16c-1 0-2 0-2-1v-13c0-1 1-2 2-2h16c1 0 2 1 2 2v13c0 1-1 1-2 1zm183-74h-21c-1 0-1 0-1-1-1 0-1-1-1-1v-11l1-1h1 21 1l1 1v11c0 1-1 2-2 2zm-1 36h-25c-1 0-2-1-2-2v-10c0-1 1-2 2-2h25c1 0 2 1 2 2v10c0 1-1 2-2 2zm0 18h-34c-1 0-1-1-2-1v-1-11-1c1 0 1-1 2-1h34c1 0 1 1 1 1 1 0 1 1 1 1v11c0 1-1 2-2 2zm-72 20h-15-1c-1-1-1-1-1-2v-12c0-1 0-1 1-1 0-1 1-1 1-1h15c1 0 1 0 2 1v1 12c0 1-1 2-2 2zm19 0h-12-2v-2-12-1c1-1 1-1 2-1h12s1 0 1 1c0 0 1 0 1 1v12c0 1-1 2-2 2zm53-1h-11c-1 0-2 0-2-2v-4c0-1 1-2 2-2h11c1 0 2 1 2 2v4c0 2-1 2-2 2zm-36 0h-11c-1 0-2 0-2-2v-4c0-1 1-2 2-2h11c1 0 2 1 2 2v4c0 2-1 2-2 2zm19 2h-13c-1 0-1 0-1-1v-15c0-1 0-1 1-1h13c1 0 1 0 1 1v15c0 1 0 1-1 1z" fill="#0ff"/>
 <path d="m1162 283h-11c-2 0-3-1-3-2v-3c0-2 1-3 3-3h11c2 0 3 1 3 3v3c0 1-1 2-3 2zm19 0h-12c-1 0-2-1-2-2v-3c0-2 1-3 2-3h12c1 0 2 1 2 3v3c0 1-1 2-2 2zm18 0h-11c-2 0-3-1-3-2v-3c0-2 1-3 3-3h11c2 0 3 1 3 3v3c0 1-1 2-3 2zm19 0h-12c-1 0-2-1-2-2v-3c0-2 1-3 2-3h12c1 0 3 1 3 3v3c0 1-2 2-3 2zm18 0h-12c-1 0-2-1-2-2v-3c0-2 1-3 2-3h12c1 0 3 1 3 3v3c0 1-2 2-3 2zm19 0h-12c-1 0-2-1-2-2v-3c0-2 1-3 2-3h12c1 0 2 1 2 3v3c0 1-1 2-2 2zm18 0h-11c-2 0-3-1-3-2v-3c0-2 1-3 3-3h11c2 0 3 1 3 3v3c0 1-1 2-3 2zm19 0h-12c-1 0-2-1-2-2v-3c0-2 1-3 2-3h12c1 0 2 1 2 3v3c0 1-1 2-2 2zm18 0h-12c-1 0-2-1-2-2v-3c0-2 1-3 2-3h12c1 0 3 1 3 3v3c0 1-2 2-3 2zm19 0h-12c-1 0-2-1-2-2v-3c0-2 1-3 2-3h12c1 0 2 1 2 3v3c0 1-1 2-2 2zm19 0h-12c-1 0-2-1-2-2v-3c0-2 1-3 2-3h12c1 0 2 1 2 3v3c0 1-1 2-2 2zm18 0h-12c-1 0-2-1-2-2v-3c0-2 1-3 2-3h12c1 0 2 1 2 3v3c0 1-1 2-2 2zm18 0h-12c-1 0-2-1-2-2v-3c0-2 1-3 2-3h12c1 0 2 1 2 3v3c0 1-1 2-2 2zm19 0h-12c-1 0-2-1-2-2v-3c0-2 1-3 2-3h12c1 0 2 1 2 3v3c0 1-1 2-2 2zm-242 18h-11s-1 0-1-1c-1 0-1-1-1-1v-10c0-1 0-1 1-2h1 11 2v2 10c0 1 0 2-2 2zm76 53h-11-2v-2-10-1c1 0 1-1 2-1h11l1 1c1 0 1 1 1 1v10c0 1-1 2-2 2zm-18 0h-11-2v-2-10-1c1 0 1-1 2-1h11l1 1c1 0 1 1 1 1v10c0 1-1 2-2 2zm-18 0h-11-1c-1-1-1-1-1-2v-10s0-1 1-1l1-1h11c1 0 1 1 2 1v1 10 2h-2zm169-17h-11s-1 0-1-1c-1 0-1-1-1-1v-10c0-1 0-1 1-2h1 11 2v2 10c0 1-1 2-2 2zm-18 0h-11s-1 0-1-1c-1 0-1-1-1-1v-10c0-1 0-1 1-2h1 11 2v2 10c0 1-1 2-2 2zm-18 0h-10c-1 0-2 0-2-1l-1-1v-10c0-1 1-1 1-2h2 10 2c0 1 1 1 1 2v10c0 1-1 2-3 2zm-18 0h-10c-1 0-2 0-2-1l-1-1v-10c0-1 1-1 1-2h2 10 2c0 1 1 1 1 2v10c0 1-1 2-3 2zm-17 0h-11c-1 0-1 0-1-1-1 0-1-1-1-1v-10c0-1 0-1 1-2h1 11 2v2 10c0 1-1 2-2 2zm-19 0h-10c-1 0-2 0-2-1l-1-1v-10c0-1 1-1 1-2h2 10 2c0 1 1 1 1 2v10c0 1-1 2-3 2zm-34 0h-11c-1 0-1 0-2-1v-1-10-2h2 11 1c1 1 1 1 1 2v10c0 1-1 2-2 2zm-18 0h-11c-1 0-1 0-2-1v-1-10-2h2 11 1c1 1 1 1 1 2v10c0 1-1 2-2 2zm-18 0h-11s-1 0-1-1c-1 0-1-1-1-1v-10c0-1 0-1 1-2h1 11 2v2 10c0 1-1 2-2 2zm-18 0h-11s-1 0-1-1c-1 0-1-1-1-1v-10c0-1 0-1 1-2h1 11 2v2 10c0 1-1 2-2 2zm210-19h-11-2v-2-10-1c1 0 1-1 2-1h11l1 1c1 0 1 1 1 1v10c0 2-1 2-2 2zm-18 0h-11-1c-1-1-1-1-1-2v-10s0-1 1-1l1-1h11c1 0 1 1 2 1v1 10 2h-2zm-18 0h-11-1c-1-1-1-1-1-2v-10s0-1 1-1l1-1h11c1 0 1 1 2 1v1 10c0 2-1 2-2 2zm-17 0h-11-2c0-1-1-1-1-2v-10l1-1s1-1 2-1h11l1 1 1 1v10c0 2-1 2-2 2zm-18 0h-11-2v-2-10-1c1 0 1-1 2-1h11l1 1c1 0 1 1 1 1v10c0 1 0 1-1 2h-1zm-18 0h-11-2v-2-10-1c1 0 1-1 2-1h11l1 1c1 0 1 1 1 1v10c0 2-1 2-2 2zm-19 0h-10-2c0-1-1-1-1-2v-10l1-1s1-1 2-1h10c1 0 2 1 2 1l1 1v10c0 2-1 2-3 2zm-17 0h-11-1c-1-1-1-1-1-2v-10s0-1 1-1l1-1h11c1 0 1 1 2 1v1 10c0 2-1 2-2 2zm-18 0h-11-1c-1-1-1-1-1-2v-10s0-1 1-1l1-1h11c1 0 1 1 2 1v1 10 2h-2zm-18 0h-11-1c-1-1-1-1-1-2v-10s0-1 1-1l1-1h11c1 0 1 1 2 1v1 10c0 2-1 2-2 2zm-17 0h-11-2v-2-10-1c1 0 1-1 2-1h11l1 1c1 0 1 1 1 1v10c0 2-1 2-2 2zm-18 0h-11-1c-1-1-1-1-1-2v-10s0-1 1-1l1-1h11c1 0 1 1 2 1v1 10 2h-2zm-18 0h-11-1c-1-1-1-1-1-2v-10s0-1 1-1l1-1h11c1 0 1 1 2 1v1 10c0 2-1 2-2 2zm187-17h-11s-1 0-1-1c-1 0-1-1-1-1v-10c0-1 0-1 1-2h1 11 2v2 10c0 1-1 2-2 2zm-18 0h-11s-1 0-1-1c-1 0-1-1-1-1v-10c0-1 0-1 1-2h1 11 2v2 10c0 1-1 2-2 2zm-17 0h-11c-1 0-1 0-2-1v-1-10-2h2 11 1c1 1 1 1 1 2v10c0 1-1 2-2 2zm-18 0h-11c-1 0-1 0-2-1v-1-10-2h2 11 1c1 1 1 1 1 2v10c0 1-1 2-2 2zm-18 0h-11s-1 0-1-1c-1 0-1-1-1-1v-10c0-1 0-1 1-2h1 11 2v2 10c0 1-1 2-2 2zm-18 0h-11c-1 0-1 0-2-1v-1-10-2h2 11 1c1 1 1 1 1 2v10c0 1-1 2-2 2zm-18 0h-11s-1 0-1-1c-1 0-1-1-1-1v-10c0-1 0-1 1-2h1 11 2v2 10c0 1-1 2-2 2zm-18 0h-11s-1 0-1-1c-1 0-1-1-1-1v-10c0-1 0-1 1-2h1 11 2v2 10c0 1-1 2-2 2zm-17 0h-11c-1 0-2 0-2-1l-1-1v-10c0-1 1-1 1-2h2 11 1c0 1 1 1 1 2v10c0 1-1 2-2 2zm-18 0h-11c-1 0-1 0-2-1v-1-10-2h2 11 1c1 1 1 1 1 2v10c0 1-1 2-2 2zm-18 0h-11s-1 0-1-1c-1 0-1-1-1-1v-10c0-1 0-1 1-2h1 11 2v2 10c0 1-1 2-2 2zm-18 0h-11s-1 0-1-1c-1 0-1-1-1-1v-10c0-1 0-1 1-2h1 11 2v2 10c0 1-1 2-2 2zm85 36h-11c-1 0-2 0-2-1l-1-1v-10c0-1 1-1 1-2h2 11 1c0 1 1 1 1 2v10c0 1-1 2-2 2zm97 17h-10-2c0-1-1-1-1-2v-10l1-1s1-1 2-1h10c1 0 2 1 2 1l1 1v10c0 1-1 2-3 2zm-18 0h-10-2c0-1-1-1-1-2v-10l1-1s1-1 2-1h10c1 0 2 1 2 1l1 1v10c0 1-1 2-3 2zm-18 0h-10-2c0-1-1-1-1-2v-10l1-1s1-1 2-1h10c1 0 2 1 2 1l1 1v10c0 1-1 2-3 2zm-17 0h-11-2v-2-10-1c1 0 1-1 2-1h11l1 1c1 0 1 1 1 1v10c0 1 0 1-1 2h-1zm-18 0h-11-1c-1-1-1-1-1-2v-10s0-1 1-1c0 0 0-1 1-1h11c1 0 1 1 2 1v1 10c0 1-1 2-2 2zm-17 0h-11-2v-2-10-1c1 0 1-1 2-1h11l1 1c1 0 1 1 1 1v10c0 1 0 1-1 2h-1zm-18 0h-11-2c0-1-1-1-1-2v-10l1-1s1-1 2-1h11l1 1 1 1v10c0 1-1 1-1 2h-1zm54 21h-83-1c-1-1-1-1-1-2v-12c0-1 0-1 1-2h1 83 1c1 1 1 1 1 2v12c0 1-1 2-2 2zm-138-56h-21c-1 0-1-1-1-2v-11c0-1 0-2 1-2h21c1 0 2 1 2 2v11c0 1-1 2-2 2zm5 18h-25c-1 0-2-1-2-1v-12c0-1 1-1 2-1h25s1 0 1 1v12l-1 1zm8 17h-34c-1 0-1 0-1-1v-11c0-1 0-2 1-2h34c1 0 2 1 2 2v11c0 1-1 1-2 1zm-22 21h-12c-1 0-1 0-1-1v-14s0-1 1-1h12c1 0 2 1 2 1v14c0 1-1 1-2 1zm36 0h-12c-1 0-2 0-2-1v-14s1-1 2-1h12c1 0 2 1 2 1v14c0 1-1 1-2 1zm-18 0h-12c-1 0-2 0-2-1v-14s1-1 2-1h12c1 0 2 1 2 1v14c0 1-1 1-2 1zm40 0h-16c-1 0-1 0-1-1v-14s0-1 1-1h16c1 0 2 1 2 1v14c0 1-1 1-2 1zm183-74h-21s-1 0-1-1c-1 0-1-1-1-1v-11s0-1 1-1h1 21 1c1 0 1 1 1 1v11c0 1-1 2-2 2zm-1 36h-25c-1 0-2-1-2-2v-10c0-1 1-2 2-2h25c1 0 2 1 2 2v10c0 1-1 2-2 2zm0 17h-34-1c-1 0-1-1-1-1v-11s0-1 1-1c0-1 0-1 1-1h34c1 0 1 0 1 1 1 0 1 1 1 1v11c0 1-1 1-2 1zm-72 21h-15-1c0-1-1-1-1-2v-12c0-1 1-1 1-1 0-1 1-1 1-1h15c1 0 1 0 2 1v1 12c0 1-1 2-2 2zm19 0h-12-2v-2-12-1c1-1 1-1 2-1h12s1 0 1 1c1 0 1 0 1 1v12c0 1-1 2-2 2zm53-1h-11c-1 0-2-1-2-2v-4c0-1 1-2 2-2h11c1 0 2 1 2 2v4c0 1-1 2-2 2zm-36 0h-11c-1 0-2-1-2-2v-4c0-1 1-2 2-2h11c1 0 2 1 2 2v4c0 1-1 2-2 2zm19-9h-13s-1 0-1-1v-5c0-1 1-1 1-1h13s1 0 1 1v5c0 1-1 1-1 1zm0 10h-13s-1-1-1-2v-4c0-1 1-2 1-2h13s1 1 1 2v4c0 1-1 2-1 2z" fill="#151515"/>
</svg>
